<?xml version="1.0" standalone="no"?>
<!DOCTYPE svg PUBLIC "-//W3C//DTD SVG 20010904//EN"
 "http://www.w3.org/TR/2001/REC-SVG-20010904/DTD/svg10.dtd">
<svg version="1.0" xmlns="http://www.w3.org/2000/svg"
 width="260.000000pt" height="260.000000pt" viewBox="0 0 260.000000 260.000000"
 preserveAspectRatio="xMidYMid meet">
<metadata>
Created by potrace 1.11, written by Peter Selinger 2001-2013
</metadata>
<g transform="translate(0.000000,260.000000) scale(0.100000,-0.100000)"
fill="#000000" stroke="none">
<path d="M1023 2536 c-14 -18 -19 -43 -21 -107 -2 -46 -5 -91 -7 -99 -3 -8
-98 -54 -216 -104 l-211 -88 -46 44 c-107 100 -126 109 -163 79 -40 -32 -29
-69 41 -134 l63 -58 -24 -51 c-35 -74 -32 -160 8 -253 l30 -70 -67 -165 c-37
-91 -108 -268 -159 -395 -51 -126 -99 -243 -106 -260 -96 -219 -120 -291 -120
-360 0 -80 18 -124 71 -178 26 -26 87 -57 242 -122 356 -151 374 -155 468
-111 65 30 106 80 145 180 51 129 46 123 79 88 47 -51 106 -76 180 -76 54 1
81 8 159 42 52 23 95 42 96 42 1 0 24 -54 51 -121 52 -130 75 -156 122 -138
50 19 45 55 -27 228 -17 41 -28 78 -24 81 5 4 49 23 98 44 51 21 107 52 128
71 50 46 81 116 79 182 l-1 52 37 -14 c20 -7 69 -26 107 -43 115 -48 220 -31
292 46 34 37 37 44 153 331 98 242 102 257 97 311 -6 70 -35 129 -85 171 -27
22 -207 103 -578 260 l-539 228 -35 78 c-19 43 -44 90 -55 104 -27 34 -92 76
-133 84 l-33 7 4 81 c5 104 -9 136 -60 137 -12 0 -30 -11 -40 -24z m259 -570
c66 -164 66 -167 45 -175 -12 -5 -157 -66 -322 -136 -165 -70 -306 -129 -312
-132 -7 -3 -17 6 -22 18 -5 13 -35 84 -65 158 -31 74 -57 140 -58 148 -2 9 38
31 117 64 133 56 122 51 360 154 94 40 174 72 180 71 5 -1 40 -78 77 -170z
m508 -206 c443 -186 596 -252 618 -266 32 -21 55 -80 48 -118 -6 -26 -115
-304 -166 -421 -10 -22 -20 -49 -24 -61 -10 -31 -50 -65 -89 -74 -33 -7 -102
13 -202 60 -11 5 -49 22 -85 38 l-65 29 -134 334 c-74 184 -142 352 -152 374
-22 50 -99 244 -99 249 0 2 37 -12 83 -31 45 -19 165 -70 267 -113z m-325
-246 c37 -91 65 -167 63 -170 -4 -3 -584 -250 -644 -274 -19 -8 -26 4 -89 163
-38 94 -65 172 -60 174 6 2 152 64 325 138 173 73 320 134 326 134 6 1 42 -74
79 -165z m-710 -494 c84 -212 158 -401 165 -421 13 -35 11 -43 -35 -155 -77
-191 -84 -203 -124 -223 -20 -10 -49 -17 -66 -15 -16 2 -138 50 -270 106 -209
90 -242 107 -262 137 -13 19 -23 47 -23 63 0 16 38 123 85 238 47 116 124 306
171 423 47 116 100 246 117 287 l31 74 29 -64 c16 -36 98 -238 182 -450z m845
160 c7 -19 19 -48 26 -65 7 -16 31 -74 53 -128 l41 -98 -38 -16 c-20 -8 -66
-28 -102 -43 -283 -123 -524 -220 -531 -213 -9 9 -139 327 -135 330 12 12 662
280 667 275 3 -4 12 -23 19 -42z"/>
</g>
</svg>
